<svg width="18" height="18" viewBox="0 0 18 18" fill="none" xmlns="http://www.w3.org/2000/svg">
<path d="M2.50269 0C2.6952 0.0642856 2.9198 0.12857 3.11231 0.224999C3.94654 0.610713 4.45991 1.575 4.29948 2.44285C4.13906 3.47142 3.40108 4.21071 2.40643 4.30714C1.28343 4.43571 0.256686 3.69642 0.0320857 2.57143C0.0320857 2.53928 0 2.50714 0 2.475C0 2.25 0 2.025 0 1.8C0 1.76785 0.0320857 1.73571 0.0320857 1.73571C0.160429 1.09285 0.513371 0.610713 1.05883 0.289285C1.28343 0.160713 1.5722 0.0964284 1.7968 0C2.08557 0 2.27808 0 2.50269 0Z" fill="white"/>
<path d="M14.246 17.9357C14.246 17.8393 14.246 17.775 14.246 17.7107C14.246 15.8786 14.246 14.0143 14.246 12.1822C14.246 11.5393 14.246 10.9286 14.0855 10.3179C13.8289 9.25719 13.0909 8.90362 12.1283 8.9679C11.9037 8.9679 11.7112 9.03219 11.4866 9.09647C10.7486 9.32147 10.3636 9.90004 10.2353 10.6393C10.139 11.1215 10.1069 11.6358 10.1069 12.15C10.1069 14.0143 10.1069 15.9107 10.1069 17.775C10.1069 17.8393 10.1069 17.9036 10.1069 18C8.85557 18 7.63631 18 6.41705 18C6.41705 14.0143 6.41705 10.0286 6.41705 6.0429C7.60422 6.0429 8.75931 6.0429 9.97857 6.0429C9.97857 6.58933 9.97857 7.10362 9.97857 7.65004H10.0107C10.0427 7.6179 10.0748 7.58576 10.0748 7.55362C10.7165 6.52505 11.647 5.97862 12.8342 5.78576C13.6043 5.65719 14.3422 5.72148 15.0802 5.91433C16.4278 6.23576 17.2299 7.10362 17.647 8.42147C17.8716 9.22504 18 10.0286 18 10.8322C18 13.1786 18 15.5572 18 17.9036C18 17.9357 18 17.9679 18 18C16.7166 17.9357 15.4973 17.9357 14.246 17.9357Z" fill="white"/>
<path d="M4.04274 5.97852C4.04274 9.96422 4.04274 13.9499 4.04274 17.9356C2.82349 17.9356 1.57214 17.9356 0.320801 17.9356C0.320801 13.9499 0.320801 9.96422 0.320801 5.97852C1.57214 5.97852 2.7914 5.97852 4.04274 5.97852Z" fill="white"/>
</svg>
