<svg width="42" height="37" viewBox="0 0 42 37" fill="none" xmlns="http://www.w3.org/2000/svg">
<path d="M37.7577 7.38293C36.48 7.9509 35.1048 8.33402 33.662 8.50547C35.1352 7.62352 36.2648 6.22653 36.7975 4.56001C35.4195 5.37774 33.8941 5.97111 32.2692 6.29144C30.9689 4.90573 29.1154 4.03931 27.0643 4.03931C23.1266 4.03931 19.934 7.23194 19.934 11.1703C19.934 11.7284 19.9968 12.2724 20.1189 12.7952C14.1922 12.4975 8.93724 9.65905 5.42005 5.34458C4.80622 6.39727 4.45485 7.62211 4.45485 8.93021C4.45485 11.4039 5.71356 13.5869 7.62703 14.8653C6.45863 14.8279 5.35867 14.5069 4.397 13.9728C4.39629 14.0024 4.39629 14.0328 4.39629 14.0631C4.39629 17.5175 6.85444 20.399 10.1169 21.0552C9.51862 21.2174 8.88856 21.3049 8.23804 21.3049C7.77801 21.3049 7.3314 21.2605 6.89607 21.1765C7.80412 24.0093 10.4373 26.0717 13.5572 26.1288C11.1167 28.0416 8.0426 29.1817 4.70109 29.1817C4.12607 29.1817 3.55809 29.1479 3 29.0816C6.15665 31.1058 9.90456 32.2855 13.9312 32.2855C27.0481 32.2855 34.2201 21.4199 34.2201 11.9965C34.2201 11.6875 34.2137 11.3792 34.2003 11.073C35.5931 10.0697 36.8024 8.81309 37.7577 7.38293Z" fill="white"/>
</svg>
